<svg xmlns="http://www.w3.org/2000/svg" width="16.104" height="20.203" viewBox="0 0 16.104 20.203"><path d="M23.7,33.8a32.574,32.574,0,0,1-6.075-6.437,10.064,10.064,0,0,1-1.977-5.473,7.824,7.824,0,0,1,2.435-6.051,8.158,8.158,0,0,1,11.234,0,7.824,7.824,0,0,1,2.435,6.051,10.064,10.064,0,0,1-1.977,5.473A32.574,32.574,0,0,1,23.7,33.8Zm0-10.077a2.141,2.141,0,0,0,2.17-2.17,2.149,2.149,0,0,0-.627-1.495,2.1,2.1,0,0,0-3.086,0,2.149,2.149,0,0,0-.627,1.495,2.141,2.141,0,0,0,2.17,2.17Z" transform="translate(-15.65 -13.6)" fill="#1e282e"/></svg>